<mxfile host="app.diagrams.net" agent="Mozilla/5.0 (Windows NT 10.0; Win64; x64; rv:144.0) Gecko/20100101 Firefox/144.0" version="28.2.7">
  <diagram name="Страница — 1" id="NCDsPudpoZuh9A40-rRk">
    <mxGraphModel dx="1042" dy="563" grid="1" gridSize="10" guides="1" tooltips="1" connect="1" arrows="1" fold="1" page="1" pageScale="1" pageWidth="827" pageHeight="1169" math="0" shadow="0">
      <root>
        <mxCell id="0" />
        <mxCell id="1" parent="0" />
        <mxCell id="qqKuM_ASxzi78jfuLYAU-1" value="abstract Name" style="swimlane;fontStyle=1;align=center;verticalAlign=top;childLayout=stackLayout;horizontal=1;startSize=26;horizontalStack=0;resizeParent=1;resizeParentMax=0;resizeLast=0;collapsible=1;marginBottom=0;whiteSpace=wrap;html=1;" vertex="1" parent="1">
          <mxGeometry x="290" y="20" width="160" height="86" as="geometry" />
        </mxCell>
        <mxCell id="qqKuM_ASxzi78jfuLYAU-2" value="-name: String" style="text;strokeColor=none;fillColor=none;align=left;verticalAlign=top;spacingLeft=4;spacingRight=4;overflow=hidden;rotatable=0;points=[[0,0.5],[1,0.5]];portConstraint=eastwest;whiteSpace=wrap;html=1;" vertex="1" parent="qqKuM_ASxzi78jfuLYAU-1">
          <mxGeometry y="26" width="160" height="26" as="geometry" />
        </mxCell>
        <mxCell id="qqKuM_ASxzi78jfuLYAU-3" value="" style="line;strokeWidth=1;fillColor=none;align=left;verticalAlign=middle;spacingTop=-1;spacingLeft=3;spacingRight=3;rotatable=0;labelPosition=right;points=[];portConstraint=eastwest;strokeColor=inherit;" vertex="1" parent="qqKuM_ASxzi78jfuLYAU-1">
          <mxGeometry y="52" width="160" height="8" as="geometry" />
        </mxCell>
        <mxCell id="qqKuM_ASxzi78jfuLYAU-4" value="+GetName(): String" style="text;strokeColor=none;fillColor=none;align=left;verticalAlign=top;spacingLeft=4;spacingRight=4;overflow=hidden;rotatable=0;points=[[0,0.5],[1,0.5]];portConstraint=eastwest;whiteSpace=wrap;html=1;" vertex="1" parent="qqKuM_ASxzi78jfuLYAU-1">
          <mxGeometry y="60" width="160" height="26" as="geometry" />
        </mxCell>
        <mxCell id="qqKuM_ASxzi78jfuLYAU-5" value="master" style="swimlane;fontStyle=1;align=center;verticalAlign=top;childLayout=stackLayout;horizontal=1;startSize=26;horizontalStack=0;resizeParent=1;resizeParentMax=0;resizeLast=0;collapsible=1;marginBottom=0;whiteSpace=wrap;html=1;" vertex="1" parent="1">
          <mxGeometry x="80" y="190" width="160" height="34" as="geometry" />
        </mxCell>
        <mxCell id="qqKuM_ASxzi78jfuLYAU-7" value="" style="line;strokeWidth=1;fillColor=none;align=left;verticalAlign=middle;spacingTop=-1;spacingLeft=3;spacingRight=3;rotatable=0;labelPosition=right;points=[];portConstraint=eastwest;strokeColor=inherit;" vertex="1" parent="qqKuM_ASxzi78jfuLYAU-5">
          <mxGeometry y="26" width="160" height="8" as="geometry" />
        </mxCell>
        <mxCell id="qqKuM_ASxzi78jfuLYAU-13" value="order" style="swimlane;fontStyle=1;align=center;verticalAlign=top;childLayout=stackLayout;horizontal=1;startSize=26;horizontalStack=0;resizeParent=1;resizeParentMax=0;resizeLast=0;collapsible=1;marginBottom=0;whiteSpace=wrap;html=1;" vertex="1" parent="1">
          <mxGeometry x="580" y="190" width="170" height="230" as="geometry" />
        </mxCell>
        <mxCell id="qqKuM_ASxzi78jfuLYAU-14" value="&lt;div&gt;-customer: String&lt;/div&gt;&lt;div&gt;-status: String&lt;/div&gt;&lt;div&gt;-start_time: LocalDateTime&lt;/div&gt;&lt;div&gt;-complete_time:&lt;br&gt;LocalDateTime&lt;/div&gt;" style="text;strokeColor=none;fillColor=none;align=left;verticalAlign=top;spacingLeft=4;spacingRight=4;overflow=hidden;rotatable=0;points=[[0,0.5],[1,0.5]];portConstraint=eastwest;whiteSpace=wrap;html=1;" vertex="1" parent="qqKuM_ASxzi78jfuLYAU-13">
          <mxGeometry y="26" width="170" height="84" as="geometry" />
        </mxCell>
        <mxCell id="qqKuM_ASxzi78jfuLYAU-15" value="" style="line;strokeWidth=1;fillColor=none;align=left;verticalAlign=middle;spacingTop=-1;spacingLeft=3;spacingRight=3;rotatable=0;labelPosition=right;points=[];portConstraint=eastwest;strokeColor=inherit;" vertex="1" parent="qqKuM_ASxzi78jfuLYAU-13">
          <mxGeometry y="110" width="170" height="8" as="geometry" />
        </mxCell>
        <mxCell id="qqKuM_ASxzi78jfuLYAU-31" style="edgeStyle=orthogonalEdgeStyle;rounded=0;orthogonalLoop=1;jettySize=auto;html=1;exitX=0;exitY=0.5;exitDx=0;exitDy=0;endArrow=none;endFill=0;" edge="1" parent="qqKuM_ASxzi78jfuLYAU-13" source="qqKuM_ASxzi78jfuLYAU-16">
          <mxGeometry relative="1" as="geometry">
            <mxPoint x="-360" y="174" as="targetPoint" />
          </mxGeometry>
        </mxCell>
        <mxCell id="qqKuM_ASxzi78jfuLYAU-16" value="&lt;div&gt;+GetCustomer(): String&lt;/div&gt;&lt;div&gt;+GetStatus(): String&lt;/div&gt;&lt;div&gt;+GetTime(): String&lt;/div&gt;&lt;div&gt;+close():void&lt;/div&gt;&lt;div&gt;+cancel():void&lt;/div&gt;&lt;div&gt;+ChangeDay(day: int): void&lt;/div&gt;&lt;div&gt;+ChangeTime(hour: int): void&lt;/div&gt;&lt;div&gt;&amp;nbsp;&lt;/div&gt;" style="text;strokeColor=none;fillColor=none;align=left;verticalAlign=top;spacingLeft=4;spacingRight=4;overflow=hidden;rotatable=0;points=[[0,0.5],[1,0.5]];portConstraint=eastwest;whiteSpace=wrap;html=1;" vertex="1" parent="qqKuM_ASxzi78jfuLYAU-13">
          <mxGeometry y="118" width="170" height="112" as="geometry" />
        </mxCell>
        <mxCell id="qqKuM_ASxzi78jfuLYAU-33" style="edgeStyle=orthogonalEdgeStyle;rounded=0;orthogonalLoop=1;jettySize=auto;html=1;exitX=0.5;exitY=1;exitDx=0;exitDy=0;endArrow=none;endFill=0;" edge="1" parent="1" source="qqKuM_ASxzi78jfuLYAU-17">
          <mxGeometry relative="1" as="geometry">
            <mxPoint x="220" y="340" as="targetPoint" />
          </mxGeometry>
        </mxCell>
        <mxCell id="qqKuM_ASxzi78jfuLYAU-17" value="place" style="swimlane;fontStyle=1;align=center;verticalAlign=top;childLayout=stackLayout;horizontal=1;startSize=26;horizontalStack=0;resizeParent=1;resizeParentMax=0;resizeLast=0;collapsible=1;marginBottom=0;whiteSpace=wrap;html=1;" vertex="1" parent="1">
          <mxGeometry x="320" y="190" width="160" height="60" as="geometry" />
        </mxCell>
        <mxCell id="qqKuM_ASxzi78jfuLYAU-18" value="-volume: int" style="text;strokeColor=none;fillColor=none;align=left;verticalAlign=top;spacingLeft=4;spacingRight=4;overflow=hidden;rotatable=0;points=[[0,0.5],[1,0.5]];portConstraint=eastwest;whiteSpace=wrap;html=1;" vertex="1" parent="qqKuM_ASxzi78jfuLYAU-17">
          <mxGeometry y="26" width="160" height="26" as="geometry" />
        </mxCell>
        <mxCell id="qqKuM_ASxzi78jfuLYAU-19" value="" style="line;strokeWidth=1;fillColor=none;align=left;verticalAlign=middle;spacingTop=-1;spacingLeft=3;spacingRight=3;rotatable=0;labelPosition=right;points=[];portConstraint=eastwest;strokeColor=inherit;" vertex="1" parent="qqKuM_ASxzi78jfuLYAU-17">
          <mxGeometry y="52" width="160" height="8" as="geometry" />
        </mxCell>
        <mxCell id="qqKuM_ASxzi78jfuLYAU-21" value="" style="endArrow=block;endSize=16;endFill=0;html=1;rounded=0;entryX=0.515;entryY=1.038;entryDx=0;entryDy=0;entryPerimeter=0;exitX=0.417;exitY=0.03;exitDx=0;exitDy=0;exitPerimeter=0;" edge="1" parent="1" source="qqKuM_ASxzi78jfuLYAU-17" target="qqKuM_ASxzi78jfuLYAU-4">
          <mxGeometry width="160" relative="1" as="geometry">
            <mxPoint x="330" y="300" as="sourcePoint" />
            <mxPoint x="490" y="300" as="targetPoint" />
          </mxGeometry>
        </mxCell>
        <mxCell id="qqKuM_ASxzi78jfuLYAU-22" value="" style="endArrow=block;endSize=16;endFill=0;html=1;rounded=0;entryX=0.415;entryY=1.1;entryDx=0;entryDy=0;entryPerimeter=0;exitX=0.683;exitY=-0.041;exitDx=0;exitDy=0;exitPerimeter=0;" edge="1" parent="1" source="qqKuM_ASxzi78jfuLYAU-5" target="qqKuM_ASxzi78jfuLYAU-4">
          <mxGeometry width="160" relative="1" as="geometry">
            <mxPoint x="330" y="300" as="sourcePoint" />
            <mxPoint x="490" y="300" as="targetPoint" />
          </mxGeometry>
        </mxCell>
        <mxCell id="qqKuM_ASxzi78jfuLYAU-23" value="" style="endArrow=block;endSize=16;endFill=0;html=1;rounded=0;entryX=0.875;entryY=1.154;entryDx=0;entryDy=0;entryPerimeter=0;exitX=0.379;exitY=-0.013;exitDx=0;exitDy=0;exitPerimeter=0;" edge="1" parent="1" source="qqKuM_ASxzi78jfuLYAU-13" target="qqKuM_ASxzi78jfuLYAU-4">
          <mxGeometry width="160" relative="1" as="geometry">
            <mxPoint x="330" y="300" as="sourcePoint" />
            <mxPoint x="490" y="300" as="targetPoint" />
          </mxGeometry>
        </mxCell>
        <mxCell id="qqKuM_ASxzi78jfuLYAU-24" value="CarRepair" style="swimlane;fontStyle=1;align=center;verticalAlign=top;childLayout=stackLayout;horizontal=1;startSize=26;horizontalStack=0;resizeParent=1;resizeParentMax=0;resizeLast=0;collapsible=1;marginBottom=0;whiteSpace=wrap;html=1;" vertex="1" parent="1">
          <mxGeometry x="110" y="400" width="210" height="320" as="geometry" />
        </mxCell>
        <mxCell id="qqKuM_ASxzi78jfuLYAU-25" value="&lt;div&gt;-masters: List&amp;lt;name&amp;gt;&lt;/div&gt;&lt;div&gt;-garage: List&amp;lt;name&amp;gt;&lt;/div&gt;&lt;div&gt;-orders: List&amp;lt;name&amp;gt;&lt;/div&gt;" style="text;strokeColor=none;fillColor=none;align=left;verticalAlign=top;spacingLeft=4;spacingRight=4;overflow=hidden;rotatable=0;points=[[0,0.5],[1,0.5]];portConstraint=eastwest;whiteSpace=wrap;html=1;" vertex="1" parent="qqKuM_ASxzi78jfuLYAU-24">
          <mxGeometry y="26" width="210" height="54" as="geometry" />
        </mxCell>
        <mxCell id="qqKuM_ASxzi78jfuLYAU-26" value="" style="line;strokeWidth=1;fillColor=none;align=left;verticalAlign=middle;spacingTop=-1;spacingLeft=3;spacingRight=3;rotatable=0;labelPosition=right;points=[];portConstraint=eastwest;strokeColor=inherit;" vertex="1" parent="qqKuM_ASxzi78jfuLYAU-24">
          <mxGeometry y="80" width="210" height="8" as="geometry" />
        </mxCell>
        <mxCell id="qqKuM_ASxzi78jfuLYAU-27" value="&lt;div&gt;+AddMaster(name: String): void&lt;/div&gt;&lt;div&gt;+DeleteMaster(name: String): void&lt;/div&gt;&lt;div&gt;+AddPlace(name: String, vol: int): void&lt;/div&gt;&lt;div&gt;+DeletePlace(name: String): void&lt;/div&gt;&lt;div&gt;+AddOrder(name: String, customer: String, stime:LocalDateTime, ctime: LocalDateTime): void&lt;br&gt;+DeleteOrder(name: String): void&lt;/div&gt;&lt;div&gt;+CompleteOrder(name: String): void&lt;/div&gt;&lt;div&gt;+CancelOrder(name: String): void&lt;/div&gt;&lt;div&gt;offsetDay(name: String, day: int): void&lt;/div&gt;&lt;div&gt;offsetHour(name: String, hour: int): void&lt;/div&gt;" style="text;strokeColor=none;fillColor=none;align=left;verticalAlign=top;spacingLeft=4;spacingRight=4;overflow=hidden;rotatable=0;points=[[0,0.5],[1,0.5]];portConstraint=eastwest;whiteSpace=wrap;html=1;" vertex="1" parent="qqKuM_ASxzi78jfuLYAU-24">
          <mxGeometry y="88" width="210" height="232" as="geometry" />
        </mxCell>
        <mxCell id="qqKuM_ASxzi78jfuLYAU-34" value="" style="endArrow=diamondThin;endFill=0;endSize=24;html=1;rounded=0;exitX=0.75;exitY=1;exitDx=0;exitDy=0;" edge="1" parent="1">
          <mxGeometry width="160" relative="1" as="geometry">
            <mxPoint x="220" y="224" as="sourcePoint" />
            <mxPoint x="220" y="400" as="targetPoint" />
          </mxGeometry>
        </mxCell>
      </root>
    </mxGraphModel>
  </diagram>
</mxfile>
